<svg height="182.574186" viewBox="0 0 15.983665 5.3576323" width="547.722558" xmlns="http://www.w3.org/2000/svg"><g transform="translate(-139.418888 -161.273559)"><path d="m154.38895 165.6588c-.4378.45896-1.02164.71049-1.63865.71049h-10.74314c-.61772 0-1.20121-.25153-1.64042-.71049-.43674-.45826-.67769-1.06786-.67769-1.71732 0-1.33774 1.04034-2.42676 2.31811-2.42676h10.74314c.61701 0 1.20085.25188 1.63865.71155.43674.4572.67733 1.06821.67733 1.71521 0 .64946-.24059 1.25906-.67733 1.71732" fill="#fff"/><path d="m154.27965 165.56545c-.43145.43004-1.00542.66781-1.61255.66781h-10.56851c-.6096 0-1.18181-.23777-1.6129-.66781-.43075-.4318-.66852-1.00401-.66852-1.61361 0-1.25871 1.02341-2.28 2.28142-2.28h10.56851c.60713 0 1.1811.23566 1.61255.6664.42968.4318.66922 1.004.66922 1.6136s-.23954 1.18181-.66922 1.61361m.18838-3.41489c-.48083-.48083-1.12007-.74471-1.80093-.74471h-10.56851c-1.40406 0-2.54741 1.14018-2.54741 2.54599 0 .67945.26493 1.3201.74753 1.79988.48049.48154 1.11937.74718 1.79988.74718h10.56851c.68086 0 1.3201-.26564 1.80093-.74718.48119-.47978.74507-1.12043.74507-1.79988 0-.68156-.26388-1.32009-.74507-1.80128" fill="#ee2824"/><path d="m152.667 161.89861h-10.56887c-1.13277 0-2.0507.91899-2.0507 2.05281 0 1.13313.91793 2.05282 2.0507 2.05282h10.56887c1.13312 0 2.0507-.91969 2.0507-2.05282 0-1.13382-.91758-2.05281-2.0507-2.05281" fill="#ee2824"/><path d="m155.00003 166.45177c.14676 0 .27023-.11254.27023-.26741 0-.15275-.12347-.26458-.27023-.26458-.14711 0-.27129.11183-.27129.26458 0 .15487.12418.26741.27129.26741m-.21696-.26741c0-.12488.096-.2226.21696-.2226.12136 0 .21661.0977.21661.2226 0 .12877-.0953.22331-.21661.22331-.121 0-.21696-.0945-.21696-.22331m.15981.0222h.0536l.0811.13264h.0526l-.0854-.1344c.0441-.008.0787-.0314.0787-.0857 0-.0596-.036-.0875-.10901-.0875h-.11712v.30762h.0455zm0-.0413v-.0952h.0653c.0314 0 .066.0102.066.0462 0 .0483-.0346.049-.0741.049z" fill="#ee2824" fill-rule="evenodd"/><g fill="#fff"><path d="m141.68376 162.81245h1.16276l-.0307 1.04634h.70803l-.0441-1.03223h1.13242l-.10478 2.31493h-.9532l-.0303-.80716h-.72108l-.0138.7934h-.98672z"/><path d="m146.08928 162.84109h2.89736l-.0303.63817h-1.73319v.39441h1.24354l-.0152.46073-1.24425-.001v.3944h1.69051l-.0155.42898h-2.68746z"/><path d="m144.97676 163.88972h.71332v.43004h-.69921z"/><path d="m149.32828 164.3344h.68439v-.44485h-.68439z"/><path d="m150.52356 165.17186-.10442-2.3308h2.18687c.42721 0 .75247.25435.75247.66569 0 .45367-.36124.60819-.4893.61701l.002.0183c.21413.0473.34537.1584.34537.44168 0 .55774-.52847.5902-.80998.5902l-1.88313-.002"/></g><path d="m151.56383 164.75121v-.42616h.39687c.11924 0 .23707.0681.23707.20814 0 .13547-.15028.21802-.31221.21802z" fill="#ee2824"/><path d="m151.57191 163.92973v-.49001h.39546c.15875 0 .31609.09.31609.25294 0 .13582-.1845.24095-.34819.23707-.13758-.003-.36336 0-.36336 0" fill="#ee2824"/></g></svg>